<svg xmlns="http://www.w3.org/2000/svg" width="1200" height="630" viewBox="0 0 1200 630">
  <rect width="1200" height="630" fill="#141413"/>
  <path d="M0 96H1200M0 192H1200M0 288H1200M0 384H1200M0 480H1200M0 576H1200" stroke="#2a2a27" stroke-width="1"/>
  <path d="M120 0V630M240 0V630M360 0V630M480 0V630M600 0V630M720 0V630M840 0V630M960 0V630M1080 0V630" stroke="#222220" stroke-width="1"/>
  <rect x="64" y="56" width="12" height="12" rx="6" fill="#8ab82f"/>
  <text x="92" y="68" fill="#9b9b95" font-family="Arial, sans-serif" font-size="20" letter-spacing="3">KEVIN AI · HANDS-ON REVIEW</text>

  <text x="64" y="184" fill="#ffffff" font-family="Arial, sans-serif" font-size="72" font-weight="700">Is Kimi K3 worth $100?</text>
  <text x="64" y="242" fill="#c8c8c2" font-family="Arial, sans-serif" font-size="28">I tested it against Codex and MiniMax with two games,</text>
  <text x="64" y="282" fill="#c8c8c2" font-family="Arial, sans-serif" font-size="28">one website, and 50 images.</text>

  <line x1="64" y1="346" x2="1136" y2="346" stroke="#3a3a36" stroke-width="1"/>

  <text x="64" y="400" fill="#8d8d87" font-family="Arial, sans-serif" font-size="18" letter-spacing="2">GPT-5.6 SOL</text>
  <text x="64" y="474" fill="#9fd23b" font-family="Arial, sans-serif" font-size="64" font-weight="700">92.6</text>

  <text x="408" y="400" fill="#8d8d87" font-family="Arial, sans-serif" font-size="18" letter-spacing="2">KIMI K3</text>
  <text x="408" y="474" fill="#ffffff" font-family="Arial, sans-serif" font-size="64" font-weight="700">89.8</text>

  <text x="752" y="400" fill="#8d8d87" font-family="Arial, sans-serif" font-size="18" letter-spacing="2">MINIMAX M3</text>
  <text x="752" y="474" fill="#d1d1ca" font-family="Arial, sans-serif" font-size="64" font-weight="700">77.8</text>

  <text x="64" y="570" fill="#777771" font-family="Arial, sans-serif" font-size="20">kevinai.top/en/articles/kimi-k3-review</text>
</svg>
